<svg width="35" height="34" viewBox="0 0 35 34" fill="none" xmlns="http://www.w3.org/2000/svg">
<path d="M17.3914 0C12.8092 0 12.2371 0.0207698 10.438 0.099695C8.64164 0.182774 7.41879 0.46109 6.34352 0.872332C5.23452 1.29604 4.29278 1.86513 3.35525 2.78869C2.41773 3.71226 1.83863 4.63859 1.40993 5.73247C0.992472 6.79173 0.708545 7.99637 0.625616 9.76596C0.541281 11.5383 0.524414 12.1019 0.524414 16.6158C0.524414 21.1298 0.545498 21.6934 0.625616 23.4657C0.709951 25.2339 0.992472 26.44 1.40993 27.4992C1.83342 28.6081 2.49728 29.6127 3.35525 30.443C4.19759 31.2888 5.2175 31.9428 6.34352 32.3594C7.42019 32.7692 8.64305 33.0503 10.438 33.132C12.2371 33.2151 12.8092 33.2317 17.3914 33.2317C21.9736 33.2317 22.5457 33.2109 24.3448 33.132C26.1397 33.0489 27.364 32.7692 28.4393 32.3594C29.5646 31.9417 30.5843 31.2877 31.4275 30.443C32.2864 29.6134 32.9504 28.6086 33.3728 27.4992C33.7889 26.44 34.0742 25.2339 34.1572 23.4657C34.2415 21.6934 34.2584 21.1298 34.2584 16.6158C34.2584 12.1019 34.2373 11.5383 34.1572 9.76596C34.0728 7.99776 33.7889 6.79034 33.3728 5.73247C32.9491 4.62366 32.2853 3.61911 31.4275 2.78869C30.5858 1.94217 29.5657 1.28799 28.4393 0.872332C27.364 0.46109 26.1397 0.18139 24.3448 0.099695C22.5457 0.0166158 21.9736 0 17.3914 0ZM17.3914 2.99085C21.8935 2.99085 22.4304 3.01301 24.2085 3.08916C25.853 3.16532 26.7455 3.43394 27.3387 3.66379C28.1286 3.96426 28.688 4.32427 29.2812 4.90444C29.8701 5.486 30.2356 6.03847 30.5406 6.81665C30.7711 7.40097 31.0466 8.28023 31.1211 9.90027C31.2012 11.6532 31.2195 12.1794 31.2195 16.6158C31.2195 21.0523 31.1984 21.5798 31.1155 23.3314C31.0297 24.9515 30.7556 25.8307 30.5237 26.415C30.2493 27.1361 29.818 27.7893 29.2601 28.3286C28.7149 28.8787 28.0524 29.3025 27.3204 29.5693C26.7301 29.7964 25.8235 30.0677 24.1789 30.1411C22.3882 30.2201 21.8611 30.2381 17.3492 30.2381C12.8359 30.2381 12.3088 30.2173 10.5195 30.1356C8.87356 30.0511 7.96696 29.7811 7.37662 29.5527C6.64418 29.2857 5.98183 28.8603 5.43832 28.3079C4.8741 27.7744 4.44137 27.1208 4.1733 26.397C3.94138 25.8155 3.6687 24.9224 3.58296 23.3023C3.51971 21.5577 3.49722 21.019 3.49722 16.5951C3.49722 12.1697 3.51971 11.6297 3.58296 9.86427C3.6687 8.24423 3.94138 7.35251 4.1733 6.77096C4.46847 5.9817 4.84658 5.44169 5.43832 4.85875C6.02726 4.27858 6.57685 3.90472 7.37662 3.61533C7.96696 3.38548 8.85389 3.11547 10.4984 3.03239C12.2905 2.97008 12.8176 2.94931 17.3281 2.94931L17.3914 2.99085ZM17.3914 8.08361C16.254 8.08361 15.1277 8.3043 14.0769 8.73308C13.0261 9.16187 12.0713 9.79035 11.267 10.5826C10.4627 11.3749 9.82475 12.3155 9.38949 13.3507C8.95422 14.3859 8.7302 15.4954 8.7302 16.6158C8.7302 17.7363 8.95422 18.8458 9.38949 19.881C9.82475 20.9162 10.4627 21.8568 11.267 22.649C12.0713 23.4413 13.0261 24.0698 14.0769 24.4986C15.1277 24.9274 16.254 25.1481 17.3914 25.1481C19.6885 25.1481 21.8915 24.2491 23.5158 22.649C25.1401 21.0489 26.0526 18.8787 26.0526 16.6158C26.0526 14.353 25.1401 12.1827 23.5158 10.5826C21.8915 8.98254 19.6885 8.08361 17.3914 8.08361ZM17.3914 22.1545C14.2851 22.1545 11.7691 19.6759 11.7691 16.6158C11.7691 13.5558 14.2851 11.0772 17.3914 11.0772C20.4977 11.0772 23.0137 13.5558 23.0137 16.6158C23.0137 19.6759 20.4977 22.1545 17.3914 22.1545ZM28.4196 7.74714C28.4001 8.26309 28.1783 8.75151 27.8008 9.10973C27.4234 9.46796 26.9197 9.6681 26.3955 9.6681C25.8714 9.6681 25.3677 9.46796 24.9903 9.10973C24.6128 8.75151 24.391 8.26309 24.3715 7.74714C24.3715 7.21832 24.5847 6.71116 24.9643 6.33724C25.3439 5.96331 25.8587 5.75324 26.3955 5.75324C26.9323 5.75324 27.4472 5.96331 27.8267 6.33724C28.2063 6.71116 28.4196 7.21832 28.4196 7.74714Z" fill="white"/>
</svg>
