<svg width="34" height="34" viewBox="0 0 34 34" fill="none" xmlns="http://www.w3.org/2000/svg">
<path d="M28.9406 28.3189H23.9452V20.6078C23.9452 18.769 23.9072 16.4026 21.342 16.4026C18.7375 16.4026 18.3397 18.4034 18.3397 20.4721V28.3189H13.3443V12.4619H18.1429V14.6233H18.2076C18.878 13.3771 20.5085 12.0617 22.9444 12.0617C28.0059 12.0617 28.942 15.3433 28.942 19.615V28.3189H28.9406ZM7.70227 10.2921C7.32118 10.2923 6.9438 10.2185 6.59173 10.0748C6.23965 9.93113 5.91979 9.72048 5.65045 9.4549C5.38112 9.18931 5.16759 8.87401 5.0221 8.52704C4.87661 8.18006 4.802 7.80823 4.80256 7.43282C4.80283 6.86758 4.97325 6.31511 5.29226 5.84528C5.61127 5.37544 6.06455 5.00935 6.59476 4.7933C7.12498 4.57724 7.70832 4.52092 8.27103 4.63146C8.83374 4.74201 9.35054 5.01444 9.75607 5.41433C10.1616 5.81421 10.4377 6.32357 10.5493 6.87801C10.661 7.43245 10.6033 8.00705 10.3834 8.52916C10.1636 9.05128 9.79152 9.49745 9.31428 9.81125C8.83704 10.1251 8.27606 10.2924 7.70227 10.2921ZM10.207 28.3189H5.19752V12.4619H10.207V28.3189ZM31.4397 0H2.68997C1.3139 0 0.200684 1.07172 0.200684 2.39407V30.8376C0.200684 32.1613 1.3139 33.2317 2.68997 33.2317H31.4355C32.8102 33.2317 33.9346 32.1613 33.9346 30.8376V2.39407C33.9346 1.07172 32.8102 0 31.4355 0H31.4397Z" fill="white"/>
</svg>
