<svg width="35" height="25" viewBox="0 0 35 25" fill="none" xmlns="http://www.w3.org/2000/svg">
<path d="M33.5679 3.92091C33.3773 3.16815 33.0015 2.4811 32.478 1.92857C31.9546 1.37605 31.3018 0.97743 30.5852 0.772643C27.9554 0.0283205 17.4065 0.0283203 17.4065 0.0283203C17.4065 0.0283203 6.85764 0.0283205 4.22639 0.772643C3.51012 0.97779 2.85777 1.37655 2.33459 1.92904C1.81141 2.48154 1.43574 3.16839 1.24515 3.92091C0.539551 6.69775 0.539551 12.4902 0.539551 12.4902C0.539551 12.4902 0.539551 18.2827 1.24515 21.0595C1.43573 21.8123 1.81157 22.4993 2.33503 23.0518C2.85849 23.6044 3.5112 24.003 4.2278 24.2078C6.85764 24.9521 17.4065 24.9521 17.4065 24.9521C17.4065 24.9521 27.9554 24.9521 30.5867 24.2078C31.3033 24.0031 31.9561 23.6045 32.4796 23.052C33.0031 22.4994 33.3788 21.8123 33.5693 21.0595C34.2735 18.2827 34.2735 12.4902 34.2735 12.4902C34.2735 12.4902 34.2735 6.69775 33.5679 3.92091ZM13.9558 17.7491V7.2313L22.773 12.4902L13.9558 17.7491Z" fill="white"/>
</svg>
