<svg width="40" height="24" viewBox="0 0 40 24" fill="none" xmlns="http://www.w3.org/2000/svg">
<path d="M0 4C0 2.93913 0.526784 1.92172 1.46447 1.17157C2.40215 0.421427 3.67392 0 5 0H35C36.3261 0 37.5979 0.421427 38.5355 1.17157C39.4732 1.92172 40 2.93913 40 4V20C40 21.0609 39.4732 22.0783 38.5355 22.8284C37.5979 23.5786 36.3261 24 35 24H5C3.67392 24 2.40215 23.5786 1.46447 22.8284C0.526784 22.0783 0 21.0609 0 20V4ZM5 2C4.33696 2 3.70107 2.21071 3.23223 2.58579C2.76339 2.96086 2.5 3.46957 2.5 4V6H37.5V4C37.5 3.46957 37.2366 2.96086 36.7678 2.58579C36.2989 2.21071 35.663 2 35 2H5ZM37.5 10H2.5V20C2.5 20.5304 2.76339 21.0391 3.23223 21.4142C3.70107 21.7893 4.33696 22 5 22H35C35.663 22 36.2989 21.7893 36.7678 21.4142C37.2366 21.0391 37.5 20.5304 37.5 20V10Z" fill="white"/>
</svg>
