<svg width="36" height="24" viewBox="0 0 36 24" fill="none" xmlns="http://www.w3.org/2000/svg">
<path d="M24.3333 10.25V7.75C24.3333 7.08696 23.9821 6.45107 23.357 5.98223C22.7319 5.51339 21.8841 5.25 21 5.25H4.33333C3.44928 5.25 2.60143 5.51339 1.97631 5.98223C1.35119 6.45107 1 7.08696 1 7.75V15.25C1 15.913 1.35119 16.5489 1.97631 17.0178C2.60143 17.4866 3.44928 17.75 4.33333 17.75H7.66667M11 22.75H27.6667C28.5507 22.75 29.3986 22.4866 30.0237 22.0178C30.6488 21.5489 31 20.913 31 20.25V12.75C31 12.087 30.6488 11.4511 30.0237 10.9822C29.3986 10.5134 28.5507 10.25 27.6667 10.25H11C10.1159 10.25 9.2681 10.5134 8.64298 10.9822C8.01786 11.4511 7.66667 12.087 7.66667 12.75V20.25C7.66667 20.913 8.01786 21.5489 8.64298 22.0178C9.2681 22.4866 10.1159 22.75 11 22.75ZM36 4C36 4.66304 35.6488 5.29893 35.0237 5.76777C34.3986 6.23661 33.5507 6.5 32.6667 6.5C31.7826 6.5 30.9348 6.23661 30.3096 5.76777C29.6845 5.29893 29.3333 4.66304 29.3333 4C29.3333 3.33696 29.6845 2.70107 30.3096 2.23223C30.9348 1.76339 31.7826 1.5 32.6667 1.5C33.5507 1.5 34.3986 1.76339 35.0237 2.23223C35.6488 2.70107 36 3.33696 36 4V4Z" stroke="#EEECEC" stroke-width="2" stroke-linecap="round" stroke-linejoin="round"/>
</svg>
