<svg width="129" height="63" viewBox="0 0 129 63" fill="none" xmlns="http://www.w3.org/2000/svg">
<g filter="url(#filter0_i_4_438)">
<path d="M64.118 5.93731C66.0891 5.93731 66.574 6.41859 66.574 6.41859L67.5595 2.21549C67.5595 2.21549 68.545 5.93731 68.545 9.20995C69.0456 12.0174 74.4737 10.1404 78.9007 9.20995C83.8283 8.2795 84.1412 0.0979004 84.1412 0.0979004H128.192C128.192 0.0979004 101.755 8.40784 108.169 24.7389C108.169 24.7389 70.0311 18.5466 64.118 41.4069C58.2049 18.5466 20.0671 24.7389 20.0671 24.7389C26.4808 8.40784 0.0439453 0.0979004 0.0439453 0.0979004H44.0949C44.0949 0.0979004 44.4077 8.2795 48.8347 9.20995C53.2774 10.1404 59.1904 12.0174 59.1904 9.20995C59.691 6.41859 60.176 2.21549 60.176 2.21549L61.1615 6.41859C61.6621 6.41859 62.6476 5.93731 64.118 5.93731Z" fill="#E0CE0D"/>
</g>
<g filter="url(#filter1_i_4_438)">
<path d="M122.689 20.16L113.257 29.664H84.7454V53.136H108.361V45.72H99.5774L90.9374 37.08H121.177V53.136L111.673 62.64H81.5774L71.9294 52.992V29.808L81.5774 20.16H122.689Z" fill="white"/>
</g>
<defs>
<filter id="filter0_i_4_438" x="0.0439453" y="-3.9021" width="129.148" height="45.3091" filterUnits="userSpaceOnUse" color-interpolation-filters="sRGB">
<feFlood flood-opacity="0" result="BackgroundImageFix"/>
<feBlend mode="normal" in="SourceGraphic" in2="BackgroundImageFix" result="shape"/>
<feColorMatrix in="SourceAlpha" type="matrix" values="0 0 0 0 0 0 0 0 0 0 0 0 0 0 0 0 0 0 127 0" result="hardAlpha"/>
<feOffset dx="1" dy="-5"/>
<feGaussianBlur stdDeviation="2"/>
<feComposite in2="hardAlpha" operator="arithmetic" k2="-1" k3="1"/>
<feColorMatrix type="matrix" values="0 0 0 0 0 0 0 0 0 0 0 0 0 0 0 0 0 0 0.25 0"/>
<feBlend mode="normal" in2="shape" result="effect1_innerShadow_4_438"/>
</filter>
<filter id="filter1_i_4_438" x="71.9292" y="20.1599" width="54.7603" height="44.48" filterUnits="userSpaceOnUse" color-interpolation-filters="sRGB">
<feFlood flood-opacity="0" result="BackgroundImageFix"/>
<feBlend mode="normal" in="SourceGraphic" in2="BackgroundImageFix" result="shape"/>
<feColorMatrix in="SourceAlpha" type="matrix" values="0 0 0 0 0 0 0 0 0 0 0 0 0 0 0 0 0 0 127 0" result="hardAlpha"/>
<feOffset dx="6" dy="2"/>
<feGaussianBlur stdDeviation="2"/>
<feComposite in2="hardAlpha" operator="arithmetic" k2="-1" k3="1"/>
<feColorMatrix type="matrix" values="0 0 0 0 0 0 0 0 0 0 0 0 0 0 0 0 0 0 0.25 0"/>
<feBlend mode="normal" in2="shape" result="effect1_innerShadow_4_438"/>
</filter>
</defs>
</svg>
