<svg width="41" height="41" viewBox="0 0 41 41" fill="none" xmlns="http://www.w3.org/2000/svg">
<path fill-rule="evenodd" clip-rule="evenodd" d="M25.6567 28.3964C19.5762 33.2609 10.6755 32.878 5.03886 27.2479C-1.00905 21.2069 -1.00905 11.4127 5.03886 5.37176C11.0868 -0.669167 20.8924 -0.669166 26.9403 5.37176C32.5769 11.0019 32.9602 19.8922 28.0902 25.9658L39.9189 37.7808C40.5909 38.452 40.5909 39.5402 39.9189 40.2114C39.2469 40.8827 38.1574 40.8827 37.4854 40.2114L25.6567 28.3964ZM7.47236 24.8172C2.76842 20.1187 2.76842 12.5009 7.47236 7.80244C12.1763 3.10394 19.8029 3.10394 24.5068 7.80244C29.2073 12.4975 29.2107 20.1075 24.5172 24.8068C24.5137 24.8103 24.5102 24.8137 24.5068 24.8171C24.5033 24.8206 24.4999 24.824 24.4965 24.8275C19.7917 29.5157 12.1728 29.5122 7.47236 24.8172Z" fill="white"/>
</svg>
