<svg width="35" height="30" viewBox="0 0 35 30" fill="none" xmlns="http://www.w3.org/2000/svg">
<path d="M34.5453 3.49189C33.2824 4.08161 31.9444 4.47087 30.5746 4.64716C32.0168 3.72779 33.0967 2.28601 33.6148 0.588074C32.2781 1.41539 30.7966 2.01762 29.2196 2.35302C28.1791 1.17306 26.8004 0.390443 25.2975 0.126714C23.7946 -0.137015 22.2517 0.132899 20.9083 0.894541C19.5649 1.65618 18.4962 2.86693 17.8682 4.33878C17.2402 5.81062 17.0879 7.4612 17.4352 9.0342C11.6864 8.7465 6.59394 5.81734 3.18259 1.39303C2.56244 2.51076 2.23898 3.78559 2.24648 5.08244C2.24648 7.63148 3.46933 9.87195 5.32189 11.1882C4.22393 11.1511 3.15023 10.8363 2.19025 10.27V10.3594C2.18963 12.0534 2.74162 13.6954 3.75257 15.0069C4.76351 16.3185 6.17116 17.2187 7.73668 17.5549C6.72227 17.8431 5.65981 17.8864 4.62753 17.6816C5.07187 19.1394 5.93425 20.4139 7.09435 21.327C8.25444 22.2401 9.65438 22.7464 11.0988 22.7752C8.65245 24.8113 5.63179 25.9165 2.52197 25.913C1.97379 25.913 1.42702 25.8787 0.877441 25.8132C4.04802 27.9662 7.73459 29.109 11.4994 29.106C24.2241 29.106 31.1747 17.932 31.1747 8.25905C31.1747 7.94601 31.1747 7.63297 31.1537 7.31993C32.5114 6.28371 33.6826 4.9972 34.6114 3.52171L34.5453 3.49189Z" fill="white"/>
</svg>
