<svg width="371" height="450" viewBox="0 0 371 450" fill="none" xmlns="http://www.w3.org/2000/svg">
<path fill-rule="evenodd" clip-rule="evenodd" d="M235.16 16.4088C272.73 21.17 313.884 13.6483 344.824 35.4872C375.403 57.0716 378.523 99.8546 398.352 131.6C422.092 169.606 479.269 195.953 472.747 240.287C466.218 284.665 401.107 290.634 370.177 323.12C341.389 353.357 334.612 401.452 298.827 422.957C259.053 446.86 210.115 455.333 164.518 446.712C116.687 437.668 61.6319 418.397 41.1529 374.235C20.3405 329.354 71.5118 279.637 64.3421 230.687C57.1393 181.512 -8.18374 147.995 0.856778 99.1243C9.58322 51.9517 60.8128 21.1972 106.05 5.22735C147.626 -9.45018 191.419 10.8655 235.16 16.4088Z" fill="url(#paint0_linear_512_165)"/>
<defs>
<linearGradient id="paint0_linear_512_165" x1="82.5" y1="15.25" x2="473.5" y2="467.25" gradientUnits="userSpaceOnUse">
<stop stop-color="#563D7C"/>
<stop offset="0.369792" stop-color="#725A65"/>
<stop offset="1" stop-color="#E0CE0D"/>
</linearGradient>
</defs>
</svg>
