<svg width="417" height="500" viewBox="0 0 417 500" fill="none" xmlns="http://www.w3.org/2000/svg">
<path fill-rule="evenodd" clip-rule="evenodd" d="M261.289 18.232C303.034 23.5223 348.76 15.1648 383.138 39.4302C417.114 63.4128 420.582 110.95 442.614 146.222C468.991 188.451 532.521 217.726 525.274 266.986C518.02 316.294 445.674 322.927 411.308 359.022C379.321 392.619 371.791 446.058 332.03 469.952C287.836 496.511 233.461 505.926 182.798 496.346C129.652 486.297 68.4799 464.886 45.7254 415.817C22.6005 365.949 79.4576 310.707 71.4912 256.319C63.4881 201.68 -9.09305 164.439 0.951975 110.138C10.648 57.7241 67.5698 23.5525 117.833 5.80817C164.029 -10.5002 212.688 12.0727 261.289 18.232Z" fill="url(#paint0_linear_512_165)"/>
<defs>
<linearGradient id="paint0_linear_512_165" x1="91.6667" y1="16.9445" x2="526.111" y2="519.167" gradientUnits="userSpaceOnUse">
<stop stop-color="#2E0F46"/>
<stop offset="0.421875" stop-color="#5C4137"/>
<stop offset="1" stop-color="#E0CE0D"/>
</linearGradient>
</defs>
</svg>
