<svg width="128" height="42" viewBox="0 0 128 42" fill="none" xmlns="http://www.w3.org/2000/svg">
<g filter="url(#filter0_i_4_180)">
<path d="M64 5.83941C65.9688 5.83941 66.4531 6.32069 66.4531 6.32069L67.4375 2.11759C67.4375 2.11759 68.4219 5.83941 68.4219 9.11205C68.9219 11.9195 74.3438 10.0425 78.7656 9.11205C83.6875 8.1816 84 0 84 0H128C128 0 101.594 8.30994 108 24.641C108 24.641 69.9063 18.4487 64 41.309C58.0938 18.4487 20 24.641 20 24.641C26.4063 8.30994 0 0 0 0H44C44 0 44.3125 8.1816 48.7344 9.11205C53.1719 10.0425 59.0781 11.9195 59.0781 9.11205C59.5781 6.32069 60.0625 2.11759 60.0625 2.11759L61.0469 6.32069C61.5469 6.32069 62.5313 5.83941 64 5.83941Z" fill="#E0CE0D"/>
</g>
<defs>
<filter id="filter0_i_4_180" x="0" y="-4" width="129" height="45.3091" filterUnits="userSpaceOnUse" color-interpolation-filters="sRGB">
<feFlood flood-opacity="0" result="BackgroundImageFix"/>
<feBlend mode="normal" in="SourceGraphic" in2="BackgroundImageFix" result="shape"/>
<feColorMatrix in="SourceAlpha" type="matrix" values="0 0 0 0 0 0 0 0 0 0 0 0 0 0 0 0 0 0 127 0" result="hardAlpha"/>
<feOffset dx="1" dy="-5"/>
<feGaussianBlur stdDeviation="2"/>
<feComposite in2="hardAlpha" operator="arithmetic" k2="-1" k3="1"/>
<feColorMatrix type="matrix" values="0 0 0 0 0 0 0 0 0 0 0 0 0 0 0 0 0 0 0.25 0"/>
<feBlend mode="normal" in2="shape" result="effect1_innerShadow_4_180"/>
</filter>
</defs>
</svg>
